<mxfile host="app.diagrams.net" modified="2024-03-27T17:13:43.017Z" agent="Mozilla/5.0 (Windows NT 10.0; Win64; x64) AppleWebKit/537.36 (KHTML, like Gecko) Chrome/122.0.0.0 Safari/537.36 OPR/108.0.0.0" version="24.2.0" etag="i93f-JMGNN7AsSz940q_" type="github">
  <diagram name="Page-1" id="2tCxbUg9jy0vB7sDS_Zl">
    <mxGraphModel>
      <root>
        <mxCell id="0" />
        <mxCell id="1" parent="0" />
      </root>
    </mxGraphModel>
  </diagram>
</mxfile>
